# xmcd
#
# Track frame offsets:
#	150
#	15085
#	27552
#	45042
#	58017
#	72847
#	84760
#	99425
#	110255
#	125904
#	139650
#	158690
#	176777
#	188750
#	203025
#
# Disc length: 2865 seconds
#
# Revision: 1
# Processed by: cddbd v1.5.2PL0 Copyright (c) Steve Scherf et al.
# Submitted via: audiograbber 1.83.01
#
DISCID=b80b2f0f
DTITLE=Barb Marchuck - Words
DYEAR=2003
DGENRE=Country
TTITLE0=Words
TTITLE1=Save The Drama For Your Mama
TTITLE2=Nothhing Has Changed
TTITLE3=Don´t Say It
TTITLE4=Kassidy´s Song
TTITLE5=If You So Much As Touch Me
TTITLE6=Slowly Going Out Of My Mind
TTITLE7=Out Of The Blue
TTITLE8=Let Him Go
TTITLE9=Don´t You Come Crying To Me
TTITLE10=Somewhere In The Heart
TTITLE11=Cross My Heart
TTITLE12=If I´m Right I´ll Be Left
TTITLE13=This Is Now That Was Yesterday
TTITLE14=Power In The Blood
EXTD=
EXTT0=
EXTT1=
EXTT2=
EXTT3=
EXTT4=
EXTT5=
EXTT6=
EXTT7=
EXTT8=
EXTT9=
EXTT10=
EXTT11=
EXTT12=
EXTT13=
EXTT14=
PLAYORDER=
